<svg enable-background="new 0 0 62 93" height="93" viewBox="0 0 62 93" width="62" xmlns="http://www.w3.org/2000/svg"><path d="m31 0c-17.1 0-31 13.9-31 31 0 9 4 17.6 10.8 23.5 3.9 3.4 4.2 6.4 4.2 11.6v-.1c0 4 2 4 2 4h28s2 0 2-4v.1c0-5.2.2-8.2 4.2-11.6 13-11.1 14.5-30.7 3.4-43.7-5.9-6.8-14.5-10.8-23.6-10.8z" fill="#fbc02d"/><path d="m44.4 85.6-3.8 3.8c-.4.4-.9.6-1.4.6h-16.4c-.5 0-1-.2-1.4-.6l-3.8-3.8c-.4-.4-.6-.9-.6-1.4h28c0 .5-.2 1-.6 1.4z" fill="#616161"/><path d="m36.6 92.4 2.4-2.4h-16l2.4 2.4c.4.4.9.6 1.4.6h8.3c.6 0 1.1-.2 1.5-.6z" fill="#424242"/><path d="m45 72v-2h-28v4c.6 0 1 .4 1 1s-.4 1-1 1v2c.6 0 1 .4 1 1s-.4 1-1 1v2c.6 0 1 .4 1 1s-.4 1-1 1v.2c0 .3.1.6.2.8h27.6c.1-.3.2-.5.2-.8v-2.2c-.6 0-1-.4-1-1s.4-1 1-1v-2c-.6 0-1-.4-1-1s.4-1 1-1v-2c-.6 0-1-.4-1-1s.4-1 1-1z" fill="#757575"/><g fill="#616161"><path d="m45 74-27.9 2h-.1c.6 0 1-.4 1-1s-.4-1-1-1l27.9-2c-.5.1-.9.6-.9 1.1.1.5.5.9 1 .9z"/><path d="m45 78-27.9 2h-.1c.6 0 1-.4 1-1s-.4-1-1-1l27.9-2c-.5.1-.9.6-.9 1.1.1.5.5.9 1 .9z"/><path d="m45 82-27.9 2h-.1c.6 0 1-.4 1-1s-.4-1-1-1l27.9-2c-.5.1-.9.6-.9 1.1.1.5.5.9 1 .9z"/></g><path d="m28 48h6c1.7 0 3 1.3 3 3v19h-12v-19c0-1.7 1.3-3 3-3z" fill="#ffe082"/><path d="m35 70h-2v-19.8c0-1.6.3-3.1.8-4.6l7.5-20-4 1.3c-.3.1-.5.1-.8-.1l-5.5-2.7-5.6 2.8c-.2.1-.5.1-.8.1l-4-1.3 7.5 20c.5 1.5.8 3 .8 4.6v19.7h-2v-19.8c0-1.3-.2-2.6-.7-3.9l-8.2-22c-.2-.5.1-1.1.6-1.3.2-.1.5-.1.7 0l5.6 1.9 5.6-2.8c.3-.1.6-.1.9 0l5.6 2.8 5.6-1.9c.5-.2 1.1.1 1.3.6.1.2.1.5 0 .7l-8.2 22c-.5 1.2-.7 2.5-.7 3.9z" fill="#fff59d"/></svg>