<svg height="102.793" viewBox="0 0 108.776 102.793" width="108.776" xmlns="http://www.w3.org/2000/svg"><ellipse cx="54.388" cy="51.396" fill="#ffa9d8" rx="51.984" ry="48.776" transform="matrix(.98307952 -.1831793 .1831793 .98307952 -8.495 10.833)"/><path d="m53.087 102.799c-10.631 0-20.958-2.956-29.865-8.657-11.928-7.635-19.882-19.271-22.396-32.765-5.179-27.795 14.635-54.886 44.169-60.389 14.279-2.662 28.682.061 40.559 7.663 11.928 7.634 19.882 19.271 22.396 32.765 5.179 27.795-14.636 54.886-44.17 60.389-3.57.666-7.149.994-10.693.994zm2.597-97.804c-3.238 0-6.508.301-9.772.909-26.825 4.998-44.845 29.472-40.17 54.557 2.259 12.122 9.424 22.588 20.176 29.47 10.802 6.914 23.922 9.383 36.947 6.959 26.824-4.999 44.845-29.473 40.17-54.558-2.259-12.122-9.424-22.588-20.176-29.47-8.095-5.181-17.493-7.868-27.175-7.868z" fill="#ffa9d8"/><g fill="#3054e5"><path d="m38.075 54.78s6.077 5.7 5.905 7.958c-.181 2.369-16.059 7.064-17.368 4.869-1.31-2.195-1.786-10.024.34-12.923 2.436-3.321 18.939-12.572 27.181-14.107 8.242-1.536 27.567.063 30.509 1.379s7.85 7.439 7.428 10.04c-.429 2.647-16.093 5.861-17.07 3.996-.976-1.865.39-9.949.39-9.949s-14.19-1.553-19.459-.423-17.856 9.16-17.856 9.16z"/><path d="m28.639 70.678c-2.138 0-3.458-.589-4.174-1.791-1.817-3.045-2.271-11.944.471-15.682 2.992-4.081 20.102-13.477 28.739-15.086 8.431-1.571 28.36-.067 31.987 1.555 3.271 1.462 9.572 8.421 8.876 12.722-.6 3.702-8.314 5.493-12.86 6.23-5.316.864-7.893.436-8.893-1.474-.896-1.711-.715-5.397-.26-8.877-4.835-.429-12.778-.917-16.07-.211-3.175.681-10.033 4.553-14.375 7.177 2.428 2.586 4.559 5.512 4.393 7.688-.274 3.59-7.853 5.899-12.347 6.955-2.241.527-4.049.794-5.487.794zm-.136-4.979c2.633.101 10.149-2.058 12.678-3.58-.767-1.281-2.754-3.58-4.816-5.516-.563-.528-.85-1.287-.778-2.055s.494-1.46 1.145-1.875c1.327-.847 13.126-8.307 18.676-9.497 5.506-1.182 18.761.219 20.256.382.684.075 1.307.429 1.722.978s.585 1.245.471 1.924c-.489 2.907-.765 6.04-.701 7.624 3.003.102 10.271-1.609 12.372-2.91-.546-1.809-3.874-6.026-5.904-6.934-2.365-1.047-21.028-2.694-29.03-1.204-8.024 1.495-23.724 10.538-25.624 13.128-1.302 1.776-1.121 7.352-.464 9.536z"/></g></svg>