<svg enable-background="new 0 0 36.667 59.652" height="59.652" viewBox="0 0 36.667 59.652" width="36.667" xmlns="http://www.w3.org/2000/svg"><path d="m23.355 8.833c.049.544-.034 1.056-.097 1.477-.081.54-.255 1.034-.487 1.398-.269.422-.827.495-1.246.725-.405.221-.759.612-1.252.698-.458.08-.956-.051-1.447-.051s-1.01.239-1.472.159c-.494-.087-.82-.609-1.228-.83-.423-.229-1.054-.24-1.325-.661-.234-.364-.381-.892-.457-1.433-.059-.421.102-.918.16-1.462.048-.454.011-.953.117-1.44.1-.458.476-.855.618-1.32.14-.458.272-.912.444-1.356.177-.457.454-.847.654-1.266.217-.455.177-1.017.41-1.401.278-.458.562-.869.842-1.18.419-.463.877-.89 1.238-.89.356 0 .891.356 1.318.818.283.306.564.74.847 1.194.237.38.311.898.533 1.354.203.417.406.853.583 1.313.171.442.44.863.578 1.327.137.462.353.918.447 1.385.098.48.18.976.222 1.442z" fill="#e22328"/><path d="m21.317 10.575c.054.598-.031.99-.186 1.352-.209.486-.499.67-.951.845-.423.163-.849.16-1.355.16-.504 0-1.08.384-1.506.221-.455-.174-.742-.676-.95-1.16-.156-.363-.361-.842-.298-1.442.049-.467.067-1.024.213-1.533.139-.487.476-.937.672-1.392.216-.503.394-1.021.641-1.398.382-.583.899-1.064 1.229-1.064.325 0 .821.491 1.214 1.074.251.372.516.846.735 1.352.195.451.066 1.039.202 1.535.136.497.296.964.34 1.45z" fill="#f0585b"/><path d="m18.662 18.666c-.553 0-1-.448-1-1 0-.335.008-.503.017-.671.007-.143.014-.287.014-.573 0-.226-.02-.338-.039-.451-.031-.176-.069-.396-.069-.793 0-.479.108-.767.219-1.02.049-.113.052-.119.052-.221 0-.139-.011-.171-.053-.288-.065-.188-.165-.471-.165-.952 0-.552.447-1 1-1s1 .448 1 1c0 .14.011.171.053.289.065.188.165.471.165.951 0 .479-.108.767-.219 1.02-.049.113-.052.119-.052.221 0 .225.02.338.039.45.031.177.069.396.069.794 0 .335-.008.503-.017.67-.007.144-.014.287-.014.574 0 .552-.447 1-1 1z" fill="#091b30"/><path d="m30.622 59.168c-.693 0-.693.396-1.386.396s-.693-.055-1.385-.055c-.693 0-.693-.072-1.386-.072-.694 0-.694.02-1.388.02-.693 0-.693.025-1.386.025-.694 0-.694-.1-1.388-.1s-.694-.064-1.387-.064c-.694 0-.694.002-1.388.002-.692 0-.692.332-1.385.332-.692 0-.692-.479-1.385-.479-.695 0-.695.309-1.389.309-.693 0-.693-.078-1.387-.078s-.694.158-1.389.158-.695-.351-1.39-.351c-.694 0-.694.16-1.388.16-.696 0-.696.05-1.392.05-.697 0-.697-.235-1.394-.235s-.697.399-1.394.399c-.456 0-.851-.404-1.272-.516-.435-.116-.793-.287-1.174-.508-.386-.223-.805-.359-1.118-.672s-.425-.745-.649-1.131c-.22-.381-.507-.701-.623-1.136-.112-.42-.074-.84-.074-1.296 0-.689-.411-.689-.411-1.378 0-.69.039-.69.039-1.38 0-.691-.019-.691-.019-1.382 0-.69.015-.69.015-1.38 0-.689.378-.689.378-1.379s.043-.69.043-1.38c0-.691-.088-.691-.088-1.382s-.02-.691-.02-1.382c0-.69-.127-.69-.127-1.38 0-.691.055-.691.055-1.381 0-.691-.009-.691-.009-1.383 0-.691-.091-.691-.091-1.381 0-.691.286-.691.286-1.383 0-.691-.384-.691-.384-1.382s.307-.691.307-1.383c0-.69-.382-.69-.382-1.38s.405-.69.405-1.38c0-.692-.024-.692-.024-1.384 0-.691-.102-.691-.102-1.382 0-.692.155-.692.155-1.384 0-.693-.133-.693-.133-1.385s-.202-.692-.202-1.383c0-.693.114-.693.114-1.387s.086-.694.086-1.389c0-.694-.252-.694-.252-1.389 0-.456.408-.853.52-1.274.116-.435.016-.953.236-1.333.223-.386.548-.733.862-1.046.313-.313.701-.567 1.087-.79.381-.22.807-.38 1.242-.496.42-.112.591 1.217 1.047 1.217.693 0 .966-.255 1.66-.255.693 0 .967.128 1.66.128s.839-.064 1.532-.064h1.34c.693 0 .647-.128 1.34-.128.694 0 .37-1.08 1.064-1.08s.694.27 1.387.27c.694 0 .694-.108 1.388-.108.692 0 .692.03 1.385.03.692 0 .595.888 1.287.888.695 0 .646.255 1.34.255.693 0 1.094.319 1.787.319.694 0 .838-.319 1.532-.319.695 0 .39.255 1.085.255.694 0 .646.064 1.34.064.696 0 .708-.128 1.404-.128.697 0 .835-.128 1.532-.128s.707-.128 1.404-.128c.456 0 .729-.24 1.149-.128.435.116.872-.757 1.253-.537.386.223.539.742.852 1.056.313.313.791.49 1.014.876.22.381.241.853.358 1.288.112.42.443.839.443 1.295 0 .689-.41.689-.41 1.378 0 .69.417.69.417 1.38 0 .691-.047.691-.047 1.382 0 .69-.169.69-.169 1.38 0 .689.119.689.119 1.379s-.262.69-.262 1.38c0 .691.024.691.024 1.382s-.1.691-.1 1.382c0 .69.301.69.301 1.38 0 .691.009.691.009 1.381 0 .691.133.691.133 1.383 0 .691-.035.691-.035 1.381 0 .691-.033.691-.033 1.383 0 .691-.184.691-.184 1.382s.013.691.013 1.383c0 .69.118.69.118 1.38s.097.69.097 1.38c0 .692-.207.692-.207 1.384 0 .691.117.691.117 1.382 0 .692-.074.692-.074 1.384 0 .693.152.693.152 1.385s-.264.692-.264 1.383c0 .693.142.693.142 1.387s-.236.694-.236 1.389c0 .694.082.694.082 1.389 0 .456-.044.873-.156 1.293-.116.435-.123.913-.343 1.294-.223.386-.471.796-.784 1.109s-.857.329-1.243.552c-.381.22-.687.602-1.122.718-.417.115-.872-.123-1.327-.123z" fill="#f38693"/><path d="m30.796 14.73c.493 0 .984-.063 1.444.026.477.093 1.024.108 1.445.342.401.223.493.855.824 1.247.282.334.676.603.895 1.087.179.396.192.875.322 1.385.109.428.206.877.277 1.395.06.443.393.891.422 1.405.026.453-.258.941-.258 1.453 0 .194.081.707.118 1.4.022.408.209.874.232 1.387.02.44.024.911.04 1.393.015.458.103.928.109 1.396.006.473-.126.945-.133 1.4-.008.49.082.967.052 1.403-.036.524-.204.981-.281 1.37-.021.107.233.688.095 1.244-.094.378-.591.614-.845.911-.244.284-.46.766-.928.766-.481 0-1.01-.187-1.388-.455-.343-.244-.681-.645-.952-1.065-.23-.356-.144-.919-.33-1.371-.165-.402-.392-.796-.528-1.254-.126-.425-.458-.814-.564-1.27-.102-.439-.29-.877-.377-1.331-.086-.449.179-.966.104-1.417-.076-.457-.472-.861-.541-1.307-.071-.465.19-.971.123-1.408-.074-.477-.189-.928-.264-1.353-.087-.497-.031-.992-.128-1.388-.137-.561-.423-1.004-.602-1.283-.28-.437-.622-.343-1.085.206-.156.184-.183.628-.249 1.289-.042.416-.292.872-.345 1.371-.049.454-.053.931-.14 1.39-.09.475-.06.99-.221 1.404-.182.469-.485.891-.799 1.19-.328.312-.798.494-1.318.514-.479.018-.757-.375-1.058-.856-.219-.35-.423-.768-.587-1.287-.134-.427-.436-.849-.552-1.34-.108-.457-.244-.927-.352-1.402-.107-.475-.178-.954-.299-1.411-.13-.488-.084-1.015-.247-1.438-.19-.494-.3-1.045-.561-1.386-.271-.355-.741-.685-1.176-.99-.388-.272-.99-.224-1.452-.425-.453-.197-.822-.702-1.296-.802-.502-.106-1.038.108-1.505.142-.627.046-1.195-.029-1.613.222-.413.249-.621.894-1.168 1.142-.402.182-.935.294-1.567.38-.485.067-.954-.015-1.387-.06-.473-.049-.926-.122-1.362-.203-.461-.086-.902-.136-1.353-.136-.438-.001-.892-.029-1.349.168-.379.163-.82.366-1.229.727-.309.272-.64.624-.973 1.043-.264.332-.264.902-.548 1.342-.231.359-.972.388-1.442.626-.505.255-.978.625-1.365.378-.31-.198-.469-.671-.469-1.407 0-.498-.141-.973-.109-1.405.038-.503.445-.912.53-1.331.1-.5.074-.965.243-1.354.2-.461.403-.869.703-1.188.318-.338.792-.389 1.228-.586.394-.178.718-.679 1.214-.756.425-.066.913.251 1.415.251.706 0 .706.019 1.413.019.706 0 .706-.15 1.411-.15.706 0 .706.176 1.412.176.707 0 .707-.142 1.414-.142.706 0 .706.095 1.412.095.707 0 .707-.411 1.414-.411s.707.039 1.413.039c.707 0 .707-.019 1.415-.019.705 0 .705.015 1.411.015.705 0 .705.378 1.411.378.708 0 .708.043 1.415.043s.707-.088 1.413-.088c.707 0 .707-.02 1.415-.02s.708-.127 1.417-.127c.707 0 .707.055 1.415.055.709 0 .709-.009 1.418-.009.71 0 .712-.108 1.421-.091.712.018.71.107 1.42.107z" fill="#fbd1d6"/></svg>