<svg enable-background="new 0 0 313.39 441.473" height="442" viewBox="0 0 313.39 441.473" width="314" xmlns="http://www.w3.org/2000/svg"><g fill="#195479"><path d="m196.891 379.799c-.319 0-.757-.339-1.079-.434-1.801-.533-2.74-2.81-2.206-4.611.672-2.267 1.098-2.141 1.77-4.408.671-2.266-.655-2.659.016-4.926.672-2.267 1.204-2.109 1.876-4.376s.363-2.359 1.035-4.626c.671-2.266 1.099-2.14 1.77-4.406.671-2.265.453-2.329 1.124-4.594.672-2.267 2.005-1.872 2.676-4.139.671-2.266-1.05-2.776-.379-5.041.672-2.267 1.979-1.88 2.65-4.146.672-2.268 1.036-2.16 1.708-4.428s.636-2.278 1.308-4.546-.997-2.762-.325-5.03c.672-2.267 1.524-2.015 2.196-4.282.672-2.268 1.035-2.16 1.706-4.427.672-2.269 1.172-2.121 1.845-4.391.673-2.271.119-2.435.791-4.706.673-2.271 1.057-2.157 1.73-4.428.533-1.801 1.808-3.088 3.613-2.553 1.801.533 2.579 2.429 2.045 4.229-.672 2.267-1.132 2.131-1.804 4.398-.671 2.266-.847 2.214-1.519 4.481s.728 2.682.057 4.949c-.672 2.267-.816 2.225-1.488 4.492-.671 2.266-1.824 1.925-2.496 4.191-.671 2.265-.587 2.29-1.258 4.555-.672 2.267-.786 2.233-1.457 4.5-.671 2.266-.558 2.299-1.229 4.565-.672 2.267.11 2.498-.561 4.765-.672 2.268-1.301 2.081-1.973 4.349s-.605 2.288-1.277 4.555c-.672 2.268.302 2.556-.37 4.824-.672 2.267-1.658 1.975-2.329 4.242-.672 2.268.629 2.653-.043 4.92-.672 2.269-.653 2.275-1.325 4.545-.673 2.271-1.215 2.11-1.888 4.381s-1.723 1.96-2.396 4.231c-.438 1.477-1.047 3.326-2.514 3.326z"/><path d="m179.151 378.261c-.319 0-.666.893-.988.797-1.801-.533-2.615-2.44-2.081-4.241.675-2.276-.028-2.485.646-4.761.675-2.277.297-2.389.971-4.666.675-2.278.636-2.289 1.31-4.567.674-2.276 1.261-2.103 1.935-4.379.674-2.275 1.683-1.976 2.357-4.251.675-2.277-.44-2.607.234-4.885.674-2.276 2.073-1.861 2.748-4.137.675-2.277.372-2.367 1.046-4.644.675-2.278.614-2.296 1.289-4.574s-.151-2.522.524-4.8 1.4-2.063 2.075-4.341c.675-2.277.673-2.278 1.347-4.555.675-2.278.049-2.463.724-4.741.675-2.28 1.473-2.043 2.149-4.323.676-2.281-.737-2.7-.061-4.981s1.949-1.904 2.625-4.185c.532-1.8 2.173-3.892 3.975-3.356 1.801.533 2.843 3.417 2.308 5.218-.675 2.276-1.24 2.109-1.914 4.386-.675 2.277-.801 2.24-1.476 4.517-.675 2.278-.862 2.222-1.536 4.5-.674 2.276.457 2.611-.218 4.888-.674 2.275-1.664 1.982-2.338 4.257-.675 2.277-.061 2.459-.736 4.736-.674 2.276-1.658 1.984-2.332 4.26-.675 2.277.139 2.518-.536 4.795-.675 2.278-.709 2.268-1.384 4.546s-1.535 2.023-2.209 4.301c-.675 2.278-.321 2.383-.996 4.661-.675 2.277-1.06 2.163-1.735 4.44-.675 2.278-.34 2.377-1.015 4.654-.675 2.28.38 2.592-.295 4.872-.676 2.281-.549 2.319-1.225 4.6s-1.781 1.954-2.456 4.235c-.436 1.478-1.264 1.724-2.732 1.724z"/><path d="m113.707 379.194c-1.468 0-3.299-1.011-3.737-2.49-.671-2.267.648-2.658-.024-4.925-.671-2.266-1.726-1.954-2.398-4.22-.672-2.267.288-2.551-.383-4.819-.672-2.267-2.342-1.773-3.014-4.04-.671-2.266.088-2.491-.583-4.757-.671-2.265-.694-2.258-1.365-4.523-.672-2.267-.145-2.423-.816-4.69-.671-2.266-.875-2.205-1.546-4.471-.672-2.267-.359-2.359-1.031-4.626-.672-2.268-.822-2.223-1.494-4.491s-1.134-2.131-1.806-4.399.036-2.478-.636-4.745-1.041-2.158-1.712-4.425c-.672-2.268-1.28-2.087-1.952-4.355-.672-2.269-.764-2.242-1.436-4.512-.673-2.271.449-2.603-.224-4.874s-1.15-2.13-1.823-4.401c-.534-1.801.378-3.649 2.179-4.182 1.801-.537 4.35.29 4.883 2.09.671 2.267.672 2.267 1.344 4.534.671 2.266-.041 2.478.63 4.744.672 2.267.765 2.239 1.437 4.506s.914 2.196 1.586 4.463c.671 2.266.519 2.311 1.191 4.577.671 2.265-.09 2.49.581 4.755.672 2.267.429 2.339 1.101 4.606.671 2.266 1.872 1.91 2.543 4.176.672 2.267.787 2.232 1.459 4.499.672 2.268.746 2.246 1.418 4.514s.603 2.288 1.275 4.556.865 2.211 1.537 4.478.312 2.374.984 4.641c.672 2.268.762 2.241 1.434 4.508.672 2.269.901 2.202 1.574 4.471.673 2.271-.831 2.716-.158 4.987s2.434 1.749 3.107 4.02c.534 1.801-1.255 4.288-3.055 4.821-.325.097-.751-.001-1.07-.001z"/><path d="m131.447 378.295c-1.468 0-3.232-.133-3.669-1.611-.674-2.277-1.131-2.141-1.806-4.418s-.54-2.317-1.215-4.594c-.675-2.278-.674-2.278-1.349-4.555-.674-2.276.917-2.748.243-5.024-.674-2.275-.751-2.252-1.425-4.527-.675-2.277-1.688-1.977-2.362-4.254-.674-2.276-.955-2.192-1.63-4.468-.675-2.277.717-2.689.042-4.966-.675-2.278-.92-2.205-1.595-4.483s-2.139-1.844-2.814-4.122-.173-2.427-.847-4.705c-.675-2.277-1.074-2.159-1.748-4.436-.675-2.278.731-2.694.056-4.972-.675-2.28-1.407-2.063-2.082-4.343-.676-2.281-.732-2.264-1.408-4.546-.676-2.281.052-2.497-.624-4.778-.534-1.801-.041-3.221 1.76-3.754s3.469.247 4.002 2.047c.674 2.277.843 2.227 1.517 4.503.675 2.277.101 2.447.776 4.724.675 2.278 2.135 1.845 2.809 4.123.674 2.276-.529 2.633.146 4.909.674 2.275.96 2.19 1.634 4.465.675 2.277-.191 2.534.484 4.811.674 2.276 1.796 1.943 2.471 4.219.675 2.277.802 2.239 1.477 4.516.675 2.278.381 2.365 1.056 4.643s.795 2.242 1.47 4.52 1.289 2.096 1.964 4.374c.675 2.277.026 2.469.701 4.747s1.015 2.177 1.69 4.454c.675 2.28.165 2.431.84 4.71.676 2.281 1.026 2.178 1.701 4.459.676 2.281.899 2.215 1.575 4.496.534 1.801-.852 4.612-2.653 5.145-.321.096-.867-1.309-1.187-1.309z"/><path d="m209.36 376.668c-.524 2.373-.875 2.295-1.4 4.668-.525 2.37-.358 2.407-.882 4.777-.525 2.372-1.662 2.121-2.187 4.493-.525 2.371.023 2.492-.502 4.863-.525 2.372-.888 2.292-1.413 4.664-.525 2.373.893 2.687.368 5.06s-.545 2.369-1.07 4.742-1.192 2.226-1.717 4.599c-.525 2.372-1.15 2.234-1.676 4.606-.525 2.373-.652 2.345-1.178 4.717-.526 2.375-.635 2.351-1.16 4.726-.526 2.376 1.055 2.727.529 5.103s-1.291 2.207-1.818 4.583c-.29 1.3-1.808 2.496-3.708 2.496-2.436 0-2.436-.368-4.872-.368s-2.436-.688-4.873-.688c-2.436 0-2.436.358-4.872.358-2.434 0-2.434.729-4.867.729-2.436 0-2.436.247-4.872.247-2.434 0-2.434-1.097-4.869-1.097-2.436 0-2.436 1.299-4.871 1.299-2.437 0-2.437-.964-4.874-.964s-2.437.433-4.873.433c-2.437 0-2.437.321-4.874.321-2.436 0-2.436-1.095-4.872-1.095s-2.436.161-4.873.161c-2.439 0-2.439.531-4.877.531-2.44 0-2.44.031-4.88.031s-2.44.555-4.88.555c-1.9 0-2.917-1.759-3.197-3.059-.523-2.373-2.051-2.035-2.577-4.408-.525-2.37 1.174-2.746.649-5.117-.526-2.372-.755-2.322-1.28-4.694-.525-2.371-1.641-2.124-2.167-4.495-.526-2.372-.586-2.359-1.112-4.731-.526-2.373-.607-2.355-1.133-4.728s.162-2.526-.364-4.899.224-2.539-.302-4.912c-.526-2.372-1.943-2.058-2.469-4.431s-.639-2.348-1.164-4.721c-.526-2.375.804-2.67.278-5.044-.527-2.376-.946-2.284-1.472-4.66-.527-2.376-1.229-2.221-1.753-4.598-.35-1.6 2.043-2.346 4.403-2.346 2.39 0 2.39-1.063 4.781-1.063 2.39 0 2.39.973 4.779.973 2.39 0 2.39-1.129 4.78-1.129s2.39-.41 4.78-.41c2.391 0 2.391 1.445 4.781 1.445s2.39.225 4.78.225c2.391 0 2.391-1.763 4.781-1.763 2.391 0 2.391.608 4.782.608s2.391.777 4.781.777c2.388 0 2.388.259 4.777.259 2.391 0 2.391-.563 4.781-.563 2.389 0 2.389-.675 4.778-.675 2.39 0 2.39 1.325 4.781 1.325s2.391-.153 4.783-.153c2.391 0 2.391.294 4.783.294 2.391 0 2.391-1.826 4.783-1.826 2.391 0 2.391 1.443 4.781 1.443 2.391 0 2.391.026 4.782.026 2.393 0 2.393-.007 4.786-.007 2.395 0 2.395.085 4.79.085s2.395-1.022 4.79-1.022c2.348-.001 4.503 1.845 4.153 3.444z"/></g><path d="m313.39 162.47c0 1.614-1.208 3.201-1.265 4.804-.058 1.613.773 3.263.658 4.864-.115 1.609-.48 3.199-.652 4.795-.172 1.603-1.161 3.09-1.389 4.679-.228 1.596.583 3.35.3 4.931-.284 1.586-.676 3.16-1.014 4.731-.338 1.575-1.192 3.03-1.582 4.589-.391 1.562-.741 3.128-1.183 4.673-.443 1.548-1.043 3.04-1.535 4.57-.493 1.532-.362 3.278-.904 4.792-.542 1.515-1.15 3.019-1.74 4.515-.59 1.497-1.11 3.037-1.746 4.515s-2.342 2.473-3.023 3.93c-.681 1.458-.731 3.211-1.455 4.648s-2.068 2.54-2.834 3.955-.519 3.396-1.325 4.788c-.807 1.392-2.183 2.451-3.028 3.82-.846 1.369-2.453 2.235-3.336 3.579-.883 1.345-1.448 2.88-2.367 4.2-.92 1.32-2.021 2.488-2.975 3.783-.955 1.295-1.317 3.026-2.306 4.294-.989 1.27-2.51 2.101-3.531 3.343-1.022 1.244-1.48 2.951-2.533 4.166-1.054 1.217-1.459 3.026-2.542 4.214-1.085 1.19-2.986 1.629-4.098 2.789-1.115 1.162-2.824 1.719-3.965 2.851-1.144 1.134-1.075 3.516-2.244 4.619-1.172 1.106-3.443 1.013-4.639 2.086-1.199 1.076-1.424 3.259-2.646 4.302-1.226 1.047-2.796 1.693-4.043 2.705-1.252 1.016-2.963 1.439-4.234 2.42-1.277.985-2.77 1.646-4.066 2.594-1.302.953-2.149 2.512-3.468 3.427-1.326.92-2.868 1.496-4.209 2.377-1.349.886-2.303 2.374-3.666 3.22-1.372.851-2.728 1.729-4.112 2.538-1.394.815-2.438 2.268-3.843 3.04-1.416.778-3.29.711-4.715 1.444-1.437.739-3.083 1.03-4.528 1.723-1.457.699-3.108.918-4.571 1.569-1.477.657-2.451 2.454-3.932 3.061-1.496.613-3.213.646-4.712 1.206-1.516.567-2.671 2.15-4.187 2.662-1.533.518-3.073 1.082-4.604 1.543-1.55.467-3.12.95-4.666 1.358-1.566.413-3.167.785-4.727 1.136-1.58.356-3.203.624-4.774.915-1.592.295-3.348-.357-4.928-.129-1.604.231-3.291-.493-4.881-.334-1.612.162-3.105 1.485-4.7 1.573-1.617.089-3.278-.089-4.874-.078-.759-2.29.845-2.426.845-4.839s-.549-2.413-.549-4.826c0-2.414-1.247-2.414-1.247-4.827 0-2.414 1.744-2.414 1.744-4.829 0-2.414-1.009-2.414-1.009-4.828s-.599-2.414-.599-4.827.166-2.413.166-4.827c0-2.413-.055-2.413-.055-4.827s1.355-2.414 1.355-4.827c0-2.414.006-2.414.006-4.829 0-2.414-.88-2.414-.88-4.828s-.204-2.414-.204-4.827 1.137-2.413 1.137-4.827-.314-2.414-.314-4.827c0-2.414.247-2.414.247-4.829 0-2.414-1.468-2.414-1.468-4.829 0-2.414 1.277-2.414 1.277-4.828s-.444-2.414-.444-4.827c0-2.414-.889-2.414-.889-4.828 0-2.415.966-2.415.966-4.829s-.753-2.414-.753-4.828-.102-2.414-.102-4.828.482-2.414.482-4.828c0-2.415.9-2.415.9-4.83 0-2.414.372-2.414.372-4.828s-1.176-2.414-1.176-4.828.754-2.414.754-4.828-.136-2.414-.136-4.828c0-2.413-.096-2.413-.096-4.825s.403-2.412.403-4.824-1.253-2.412-1.253-4.824c0-2.413.431-2.413.431-4.826 0-2.415.119-2.415.119-4.829s-.518-2.414-.518-4.828c0-2.413 1.152-2.413 1.152-4.826s-.631-2.413-.631-4.825c0-2.414.677-2.414.677-4.827 0-2.415-1.532-2.415-1.532-4.831 0-2.414.876-2.414.876-4.827s-.144-2.413-.144-4.827.497-2.414.497-4.829-.691-2.415-.691-4.83c0-2.414.509-2.414.509-4.828s.038-2.414.038-4.829-.599-2.415-.599-4.831c0-2.414-.076-2.414-.076-4.829s1.199-2.415 1.199-4.831c0-2.415-.843-2.415-.843-4.83s-.231-2.415-.231-4.831c0-2.415.346-2.415.346-4.83 0-2.416-.84-2.416-.84-4.832 0-2.415.51-2.415.51-4.83 0-2.416.462-2.416.462-4.832s-.188-2.416-.188-4.832.07-2.416.07-4.832c0-2.414.482-2.414.482-4.827 0-2.416-.74-2.416-.74-4.832 0-2.414.055-2.414.055-4.829 0-2.416-.391-2.416-.391-4.831 0-2.417.914-2.417.914-4.833 0-2.417.07-2.417.07-4.833 0-2.417.051-2.417.051-4.833s.397-2.416.397-4.832.044-2.416.044-4.833c0-2.418-.86-2.418-.86-4.837 0-2.42-.529-2.42-.529-4.84s-1.163-2.835-.397-5.131c1.613.007 4.079.684 5.678.738 1.612.054 3.171.68 4.768.781 1.609.102 3.176.308 4.77.457 1.605.15 3.274-.496 4.863-.299 1.6.198 3.335-.539 4.917-.294 1.593.247 2.979 1.708 4.553 2.002 1.584.296 3.069.965 4.633 1.308 1.574.344 3.133.634 4.686 1.025 1.562.393 3.389-.236 4.93.204 1.548.442 3.215.543 4.742 1.03 1.534.49 2.9 1.519 4.411 2.054 1.517.538 3.021 1.123 4.515 1.706 1.499.585 3.187.74 4.662 1.369 1.48.632 2.689 1.894 4.144 2.57 1.459.678 3.185.825 4.618 1.546 1.437.723 2.925 1.392 4.335 2.158 1.413.768 2.389 2.328 3.774 3.138 1.388.812 2.41 2.197 3.769 3.05 1.361.855 2.75 1.625 4.082 2.521 1.334.897 3.393.749 4.696 1.687 1.305.938 1.804 2.959 3.077 3.936 1.275.978 3.216 1.109 4.459 2.126s1.674 2.988 2.885 4.043 3.093 1.351 4.271 2.444c1.178 1.092 2.832 1.712 3.975 2.841 1.143 1.128 2.284 2.299 3.392 3.462 1.108 1.162 2.145 2.427 3.217 3.624 1.072 1.196.875 3.494 1.911 4.723 1.034 1.227 2.009 2.472 3.007 3.732.996 1.258 2.541 2.078 3.5 3.368.958 1.288 1.236 3.047 2.156 4.365.918 1.316 1.883 2.57 2.763 3.915.878 1.343 1.839 2.608 2.678 3.979.837 1.369 2.292 2.363 3.09 3.759.796 1.393 2.202 2.465 2.958 3.885.754 1.416.116 3.548.829 4.99.711 1.438 1.599 2.772 2.269 4.234.668 1.458 1.395 2.876 2.022 4.358.625 1.477.888 3.083 1.471 4.582.581 1.494 2.197 2.599 2.736 4.115.537 1.511-.042 3.394.453 4.926.492 1.525 2.411 2.614 2.861 4.159.448 1.539-.462 3.454-.058 5.012.403 1.551 1.016 3.037 1.376 4.606.358 1.562 1.481 2.962 1.795 4.542.313 1.571 1.159 3.066 1.428 4.654.268 1.579-1.134 3.424-.91 5.019.223 1.586 2.011 2.98 2.19 4.581.178 1.592-.759 3.305-.626 4.911.133 1.596-.348 3.224-.259 4.833.088 1.599 1.362 3.147 1.407 4.758.045 1.601.301 3.217.301 4.829z" fill="#091b30"/><path d="m156.866.592c.337 2.389-.23 2.522-.23 4.935s.349 2.413.349 4.826c0 2.414-1.111 2.414-1.111 4.827 0 2.414 1.017 2.414 1.017 4.829 0 2.414-.299 2.414-.299 4.828s-.736 2.414-.736 4.827-.676 2.413-.676 4.827c0 2.413 1.861 2.413 1.861 4.827s-1.803 2.414-1.803 4.827c0 2.414 1.485 2.414 1.485 4.829 0 2.414-.617 2.414-.617 4.828s.829 2.414.829 4.827-1.4 2.413-1.4 4.827.242 2.414.242 4.827c0 2.414 1.125 2.414 1.125 4.828s-.671 2.414-.671 4.829c0 2.414-.542 2.414-.542 4.828s.764 2.414.764 4.827c0 2.414.367 2.414.367 4.828 0 2.415-.154 2.415-.154 4.829s-1.57 2.414-1.57 4.828.878 2.414.878 4.828.65 2.414.65 4.828c0 2.415-1.491 2.415-1.491 4.83 0 2.414-.01 2.414-.01 4.828s1.466 2.414 1.466 4.828-.13 2.414-.13 4.828-1.115 2.414-1.115 4.828c0 2.413 1.681 2.413 1.681 4.825s-1.459 2.412-1.459 4.824.341 2.412.341 4.824c0 2.413.761 2.413.761 4.826 0 2.415-.336 2.415-.336 4.829s.671 2.414.671 4.828c0 2.413-.978 2.413-.978 4.826s-.344 2.413-.344 4.825c0 2.414.314 2.414.314 4.827 0 2.415-.482 2.415-.482 4.831 0 2.414.668 2.414.668 4.827s.821 2.413.821 4.827-1.382 2.414-1.382 4.829 1.236 2.415 1.236 4.83c0 2.414-1.346 2.414-1.346 4.828s1.475 2.414 1.475 4.829.107 2.415.107 4.831c0 2.414-1.523 2.414-1.523 4.829s.221 2.415.221 4.831c0 2.415 1.017 2.415 1.017 4.83s-.896 2.415-.896 4.831c0 2.415.756 2.415.756 4.83 0 2.416-1.111 2.416-1.111 4.832 0 2.415.985 2.415.985 4.83 0 2.416-.003 2.416-.003 4.832s-1.067 2.416-1.067 4.832.802 2.416.802 4.832c0 2.414.488 2.414.488 4.827 0 2.416.329 2.416.329 4.832 0 2.414-.462 2.414-.462 4.829 0 2.416-.266 2.416-.266 4.831 0 2.417-1.123 2.417-1.123 4.833 0 2.417.421 2.417.421 4.833 0 2.417.724 2.417.724 4.833s-.477 2.416-.477 4.832-.597 2.416-.597 4.832c0 2.418.3 2.418.3 4.837 0 2.42-.434 2.42-.434 4.84s1.015 2.41.679 4.807c-.047.337-.103-.601-.443-.601-1.594 0-3.2.628-4.813.55-1.592-.077-3.239.282-4.847.13-1.587-.15-3.188-.441-4.788-.663-1.579-.219-3.212-.295-4.802-.582-1.569-.283-2.877-1.903-4.454-2.252-1.557-.344-3.209-.256-4.772-.662-1.543-.402-2.873-1.524-4.419-1.986-1.528-.457-3.059-.832-4.589-1.346-1.512-.508-3.421.101-4.932-.463-1.495-.557-2.646-2.007-4.138-2.617-1.477-.604-2.907-1.293-4.379-1.948-1.459-.649-2.771-1.576-4.223-2.274-1.439-.692-3.114-.886-4.545-1.626-1.42-.733-3.07-1.04-4.48-1.819-1.399-.773-3.183-.912-4.57-1.729-1.378-.811-2.515-2.063-3.88-2.917-1.356-.848-2.197-2.503-3.538-3.392-1.334-.884-2.712-1.688-4.03-2.612-1.31-.918-3.327-.872-4.62-1.829-1.287-.952-1.695-3.07-2.964-4.059-1.262-.985-3.443-.833-4.685-1.854-1.237-1.017-1.5-3.198-2.716-4.249-1.211-1.048-2.819-1.64-4.008-2.721-1.185-1.078-2.294-2.239-3.455-3.35-1.158-1.108-2.381-2.15-3.513-3.289-1.129-1.137-1.814-2.697-2.916-3.865-1.1-1.165-2.95-1.641-4.022-2.836-1.07-1.193-1.535-2.92-2.576-4.142-1.04-1.221-2.866-1.796-3.875-3.045-1.008-1.247-1.093-3.225-2.069-4.5-.975-1.273-2.089-2.432-3.031-3.732-.941-1.299-1.836-2.622-2.742-3.947-.905-1.324-2.184-2.399-3.053-3.749-.869-1.348-1.222-3.016-2.054-4.389-.831-1.372-1.16-3.017-1.953-4.413-.792-1.395-2.672-2.183-3.424-3.6s-1.402-2.895-2.113-4.334c-.71-1.438-.897-3.124-1.565-4.584-.667-1.459-2.496-2.418-3.119-3.897-.623-1.478-1.017-3.077-1.594-4.575-.577-1.496-.015-3.416-.546-4.932-.53-1.513-1.735-2.8-2.218-4.331-.481-1.529-.342-3.242-.775-4.789-.432-1.544-.517-3.162-.898-4.723-.381-1.557-2.304-2.769-2.634-4.341-.329-1.568.64-3.397.364-4.98-.276-1.578-.241-3.189-.464-4.782-.222-1.586-.844-3.111-1.011-4.71-.167-1.592-.023-3.202-.135-4.807-.112-1.596-.765-3.161-.821-4.769-.056-1.599.206-3.205.206-4.815 0-1.608.092-3.202.134-4.799.043-1.607.73-3.167.816-4.762.086-1.605-1.283-3.298-1.155-4.891.13-1.602.329-3.207.501-4.796.173-1.598 1.461-3.053 1.677-4.637.217-1.592.425-3.165.685-4.742.261-1.586.366-3.181.67-4.75.305-1.577-.73-3.438-.383-4.998.349-1.568 2.346-2.745 2.738-4.295.394-1.558.812-3.085 1.247-4.624.438-1.546.828-3.082 1.307-4.608.482-1.532.319-3.266.842-4.777.525-1.518 1.435-2.889 2.002-4.385.569-1.502.989-3.052 1.599-4.531.613-1.484 1.822-2.694 2.475-4.155.656-1.465.849-3.127 1.545-4.567.698-1.445.388-3.405 1.126-4.824.741-1.424 2.713-2.189 3.493-3.585.783-1.401 1.452-2.852 2.274-4.225.824-1.377 2.106-2.447 2.969-3.795.865-1.351.701-3.374 1.605-4.695.906-1.324 1.396-2.966 2.339-4.259.945-1.296 1.968-2.568 2.95-3.832.984-1.266 3.198-1.55 4.219-2.783 1.023-1.235 1.365-3.043 2.424-4.245 1.06-1.203 1.637-2.871 2.732-4.039 1.097-1.169 2.39-2.185 3.522-3.319 1.133-1.134 2.15-2.425 3.317-3.523s3.398-1.038 4.599-2.099c1.201-1.06 1.903-2.696 3.138-3.718 1.234-1.022 2.361-2.194 3.627-3.176s3.232-1.023 4.529-1.964c1.296-.941 1.722-3.126 3.048-4.026 1.325-.899 3.388-.684 4.743-1.541 1.353-.856 2.025-2.842 3.407-3.655 1.379-.812 2.854-1.511 4.263-2.28 1.405-.767 3.512-.199 4.945-.922 1.428-.721 2.769-1.58 4.224-2.257 1.45-.675 2.747-1.671 4.224-2.301 1.471-.627 3.006-1.084 4.503-1.666 1.49-.58 2.769-1.737 4.284-2.272 1.508-.532 3.028-1.068 4.56-1.554 1.523-.483 2.92-1.467 4.466-1.904 1.538-.434 3.109-.867 4.669-1.255 1.55-.386 3.321.091 4.892-.247 1.561-.336 3.312.326 4.893.037 1.571-.288 2.956-1.644 4.546-1.884 1.578-.239 3.281.475 4.878.283 1.585-.19 3.095-1.025 4.698-1.168 1.59-.142 3.19-.15 4.797-.245 1.593-.094 3.178-.495 4.787-.542 1.595-.047 3.278.552 4.889.552.758-.11 1.325-.972 1.373-.635z" fill="#95cdef"/><path d="m263.067 162.47c0 1.596.242 3.195.203 4.78-.039 1.595-.26 3.185-.337 4.769-.077 1.594-1.036 3.124-1.151 4.705-.115 1.592.47 3.23.318 4.808-.154 1.588.505 3.271.315 4.845-.191 1.584-1.898 2.965-2.126 4.534-.229 1.58.816 3.355.551 4.919-.267 1.574-.415 3.182-.718 4.739-.304 1.567-.762 3.115-1.101 4.664-.341 1.56-.959 3.063-1.334 4.603-.378 1.551-1.522 2.901-1.934 4.432-.415 1.542-.665 3.118-1.112 4.639-.451 1.532-1.209 2.955-1.693 4.464-.487 1.521-.814 3.079-1.334 4.576-.523 1.509.052 3.415-.502 4.899-.559 1.496-2.376 2.504-2.966 3.974-.595 1.483-.688 3.162-1.312 4.617-.63 1.468-.672 3.202-1.331 4.641-.665 1.453-2.719 2.242-3.413 3.664-.701 1.436-.044 3.548-.772 4.953-.736 1.419-1.789 2.678-2.552 4.064-.771 1.401-2.416 2.296-3.214 3.662-.807 1.381-.928 3.161-1.76 4.506-.842 1.361-1.494 2.845-2.361 4.167-.878 1.339-1.868 2.605-2.77 3.903-.914 1.315-1.667 2.75-2.604 4.022-.95 1.29-2.937 1.779-3.909 3.023-.987 1.263-1.621 2.779-2.629 3.993-1.024 1.235-2.19 2.321-3.234 3.505-1.062 1.203-1.521 2.939-2.601 4.088-1.099 1.17-3.161 1.375-4.277 2.486-1.138 1.133-1.775 2.741-2.928 3.812-1.178 1.094-1.747 2.863-2.939 3.89-1.219 1.05-2.367 2.212-3.598 3.191-1.26 1.001-3.299.971-4.569 1.895-1.302.948-2.583 1.869-3.892 2.734-1.345.888-2.87 1.406-4.22 2.204-1.388.821-2.14 2.743-3.53 3.466-1.432.746-3.532.043-4.962.683-1.473.659-2.592 2.047-4.06 2.591-1.514.561-3.076.874-4.58 1.309-1.55.448-2.98 1.303-4.515 1.614-1.58.32-3.111 1.164-4.669 1.335-1.6.175-2.747-.773-4.317-.76-.749-2.294.103-2.238.103-4.651s-1.562-2.413-1.562-4.826c0-2.414 1.161-2.414 1.161-4.827 0-2.414.258-2.414.258-4.829 0-2.414-.059-2.414-.059-4.828s-.536-2.414-.536-4.827-.758-2.413-.758-4.827c0-2.413 1.529-2.413 1.529-4.827s-.877-2.414-.877-4.827c0-2.414-.678-2.414-.678-4.829 0-2.414 1.841-2.414 1.841-4.828s-1.054-2.414-1.054-4.827-.206-2.413-.206-4.827.924-2.414.924-4.827c0-2.414-.346-2.414-.346-4.829 0-2.414-.068-2.414-.068-4.829 0-2.414-.959-2.414-.959-4.828s.628-2.414.628-4.827c0-2.414-.137-2.414-.137-4.828 0-2.415-.462-2.415-.462-4.829s-.175-2.414-.175-4.828.592-2.414.592-4.828-.364-2.414-.364-4.828c0-2.415 1.552-2.415 1.552-4.83 0-2.414-.917-2.414-.917-4.828s-.553-2.414-.553-4.828 1.395-2.414 1.395-4.828.054-2.414.054-4.828c0-2.413-.775-2.413-.775-4.825s.553-2.412.553-4.824.095-2.412.095-4.824c0-2.413-1.315-2.413-1.315-4.826 0-2.415 1.264-2.415 1.264-4.829s-.92-2.414-.92-4.828c0-2.413.778-2.413.778-4.826s-1.145-2.413-1.145-4.825c0-2.414-.161-2.414-.161-4.827 0-2.415 1.173-2.415 1.173-4.831 0-2.414-1.373-2.414-1.373-4.827s.169-2.413.169-4.827.385-2.414.385-4.829.44-2.415.44-4.83c0-2.414-.194-2.414-.194-4.828s.297-2.414.297-4.829.686-2.415.686-4.831c0-2.414-.985-2.414-.985-4.829s-.704-2.415-.704-4.831c0-2.415 1.545-2.415 1.545-4.83s-.928-2.415-.928-4.831c0-2.415.461-2.415.461-4.83 0-2.416.01-2.416.01-4.832 0-2.415-.609-2.415-.609-4.83 0-2.416-.497-2.416-.497-4.832s1.738-2.416 1.738-4.832-.583-2.416-.583-4.832c0-2.414.21-2.414.21-4.827 0-2.416-.198-2.416-.198-4.832 0-2.414-.494-2.414-.494-4.829 0-2.416-.064-2.416-.064-4.831 0-2.417-.541-2.417-.541-4.833 0-2.417 1.267-2.417 1.267-4.833 0-2.417.006-2.417.006-4.833s-.661-2.416-.661-4.832-.429-2.416-.429-4.833c0-2.418-.065-2.418-.065-4.837 0-2.42-.232-2.42-.232-4.84s.63-2.389 1.403-4.683c1.627.008 2.827-.809 4.433-.699 1.621.111 3.313.01 4.911.224 1.608.215 3.189.879 4.773 1.195 1.588.317 2.886 1.875 4.448 2.292 1.563.417 3.009 1.068 4.544 1.582 1.531.513 3.096.823 4.599 1.431 1.495.605 3.512.051 4.978.748 1.455.692 2.496 2.247 3.921 3.027 1.412.773 2.653 1.823 4.034 2.681 1.367.849 2.728 1.682 4.063 2.611 1.32.919 3.037 1.308 4.325 2.304 1.271.983 2.003 2.64 3.243 3.696 1.223 1.042 2.399 2.117 3.589 3.229 1.174 1.096 2.699 1.833 3.84 2.995 1.126 1.146 2.738 1.868 3.83 3.076 1.078 1.191.876 3.502 1.921 4.752 1.03 1.232 3.499 1.32 4.496 2.608.984 1.27.495 3.652 1.446 4.975.938 1.305 1.982 2.514 2.888 3.868.893 1.336 3.219 1.764 4.08 3.147.849 1.364.49 3.475 1.307 4.883.806 1.39 2.224 2.447 2.997 3.879.764 1.414 1.672 2.777 2.403 4.23.723 1.436.415 3.38 1.106 4.854.682 1.456 1.84 2.696 2.49 4.188.643 1.474.713 3.188 1.324 4.696.604 1.491 1.429 2.89 2.002 4.413.566 1.506 1.237 2.974 1.772 4.511.529 1.52 1.656 2.849 2.154 4.398.492 1.533.584 3.2 1.045 4.76.456 1.544 1.112 3.04 1.537 4.61.421 1.554 1.67 2.914 2.06 4.492.386 1.563-.184 3.371.171 4.956.352 1.571.239 3.245.56 4.838.318 1.579.314 3.215.601 4.814.285 1.586 1.709 2.984 1.963 4.589.252 1.592-.216 3.299.005 4.909.219 1.597 1.328 3.091 1.516 4.705.187 1.601.727 3.187.883 4.803.155 1.605-.938 3.331-.813 4.951.124 1.608-.397 3.255-.304 4.877.092 1.61 1.182 3.171 1.244 4.794.061 1.613-.157 3.239-.126 4.864.03 1.614.247 3.232.247 4.857z" fill="#1a3b60"/><path d="m155.204.768c.185 2.406.368 2.345.368 4.758s.38 2.413.38 4.826c0 2.414 1.057 2.414 1.057 4.827 0 2.414-1.066 2.414-1.066 4.829 0 2.414.385 2.414.385 4.828s-.813 2.414-.813 4.827 1.258 2.413 1.258 4.827c0 2.413-1.059 2.413-1.059 4.827s.738 2.414.738 4.827c0 2.414.014 2.414.014 4.829 0 2.414.369 2.414.369 4.828s-1.709 2.414-1.709 4.827 1.081 2.413 1.081 4.827-.559 2.414-.559 4.827c0 2.414-.289 2.414-.289 4.828s.877 2.414.877 4.829c0 2.414-.478 2.414-.478 4.828s-.062 2.414-.062 4.827c0 2.414 1.231 2.414 1.231 4.828 0 2.415-1.02 2.415-1.02 4.829s1.13 2.414 1.13 4.828-.825 2.414-.825 4.828-.196 2.414-.196 4.828c0 2.415-.694 2.415-.694 4.83 0 2.414 1.728 2.414 1.728 4.828s-1.289 2.414-1.289 4.828-.281 2.414-.281 4.828-.254 2.414-.254 4.828c0 2.413 1.751 2.413 1.751 4.825s-.226 2.412-.226 4.824.076 2.412.076 4.824c0 2.413-1.372 2.413-1.372 4.826 0 2.415.877 2.415.877 4.829s-.086 2.414-.086 4.828c0 2.413-.14 2.413-.14 4.826s.197 2.413.197 4.825c0 2.414.229 2.414.229 4.827 0 2.415.258 2.415.258 4.831 0 2.414-.564 2.414-.564 4.827s.085 2.413.085 4.827-1.147 2.414-1.147 4.829 1.122 2.415 1.122 4.83c0 2.414-.78 2.414-.78 4.828s.514 2.414.514 4.829-.741 2.415-.741 4.831c0 2.414 1.744 2.414 1.744 4.829s-1.74 2.415-1.74 4.831c0 2.415.981 2.415.981 4.83s.746 2.415.746 4.831c0 2.415-.135 2.415-.135 4.83 0 2.416-.497 2.416-.497 4.832 0 2.415.177 2.415.177 4.83 0 2.416-.713 2.416-.713 4.832s.923 2.416.923 4.832-1.523 2.416-1.523 4.832c0 2.414.898 2.414.898 4.827 0 2.416.697 2.416.697 4.832 0 2.414-1.393 2.414-1.393 4.829 0 2.416.142 2.416.142 4.831 0 2.417-.321 2.417-.321 4.833s-.142 2.417-.142 4.833c0 2.417.52 2.417.52 4.833s.67 2.416.67 4.832-1.08 2.416-1.08 4.832c0 2.418.738 2.418.738 4.837 0 2.42.704 2.42.704 4.84s-.922 2.387-1.106 4.8c-.014.185.341.759.156.759-1.571 0-3.224-.131-4.822-.293-1.559-.159-2.953-1.612-4.532-1.922-1.535-.301-3.079-.501-4.629-.942-1.504-.428-2.933-1.054-4.446-1.61-1.468-.539-3.165-.538-4.637-1.194-1.428-.636-2.578-1.877-4.007-2.621-1.387-.722-3.477-.253-4.861-1.074-1.346-.798-1.931-2.869-3.271-3.758-1.305-.866-3.383-.673-4.679-1.624-1.264-.926-2.475-2.009-3.729-3.013-1.224-.981-2.553-1.913-3.764-2.967-1.184-1.03-1.987-2.54-3.157-3.637-1.146-1.074-1.408-3.063-2.538-4.2-1.108-1.115-3.432-1.076-4.523-2.251-1.07-1.152-2.094-2.396-3.145-3.604-1.033-1.187-1.655-2.754-2.668-3.993-.997-1.219-1.139-3.117-2.115-4.384-.961-1.248-3.11-1.616-4.049-2.911-.925-1.276-1.579-2.77-2.482-4.09-.89-1.301-2.208-2.345-3.074-3.687-.855-1.325-1.591-2.757-2.421-4.12-.82-1.347-1.228-2.961-2.022-4.345-.785-1.369-2.166-2.43-2.926-3.833-.751-1.388-1.235-2.946-1.959-4.368-.717-1.407-1.492-2.81-2.181-4.249-.682-1.425-.632-3.204-1.286-4.659-.648-1.441-2.116-2.541-2.735-4.011-.613-1.457.246-3.52-.337-5.004-.579-1.471-1.14-2.935-1.688-4.432-.544-1.485-2.484-2.481-2.996-3.991-.509-1.497.241-3.413-.236-4.933-.474-1.509-2.489-2.563-2.931-4.094-.438-1.52.139-3.336-.267-4.877-.403-1.53-.728-3.082-1.098-4.632-.367-1.539-1.776-2.857-2.11-4.416-.331-1.547.341-3.314.044-4.879-.295-1.555-.909-3.061-1.17-4.634-.259-1.561-.486-3.14-.71-4.717-.222-1.567.351-3.239.164-4.821-.186-1.572-.258-3.147-.407-4.734-.149-1.576-.21-3.15-.323-4.74-.112-1.579-.701-3.125-.776-4.717-.075-1.582.211-3.173.173-4.766-.037-1.583.057-3.159.057-4.753 0-1.621.033-3.224.062-4.834.03-1.621-1.002-3.263-.943-4.871.06-1.621-.289-3.266-.199-4.873.09-1.619 1.93-3.118 2.05-4.724.121-1.618-1.571-3.382-1.42-4.984.152-1.615 1.311-3.128 1.493-4.727.183-1.612-.018-3.268.195-4.863.215-1.608 1.618-3.034 1.863-4.624.247-1.604-1.31-3.499-1.034-5.083.279-1.599 1.028-3.119 1.337-4.698.312-1.593 1.657-2.965 1.999-4.536.346-1.586-.443-3.426-.066-4.99.38-1.578 1.399-2.995 1.81-4.55.415-1.57 1.461-2.95 1.906-4.494.45-1.56.452-3.238.933-4.771.486-1.549.303-3.314.82-4.835.523-1.538 1.552-2.895 2.106-4.403.56-1.525.4-3.327.992-4.82.599-1.51 2.56-2.454 3.19-3.93.638-1.495.711-3.221 1.381-4.68.678-1.477 1.92-2.667 2.63-4.107.719-1.458.801-3.224 1.553-4.642.761-1.437 1.052-3.135 1.846-4.529.804-1.413 1.611-2.84 2.448-4.208.848-1.387 2.61-2.191 3.491-3.531.893-1.359 1.913-2.603 2.839-3.912.94-1.328 2.237-2.349 3.21-3.623.987-1.294.591-3.67 1.612-4.908 1.035-1.255 3.345-1.405 4.413-2.6 1.084-1.213 2.158-2.375 3.276-3.525 1.133-1.167 2.332-2.201 3.499-3.301 1.183-1.116 1.154-3.566 2.371-4.612 1.233-1.06 2.766-1.796 4.032-2.782 1.282-.998 2.974-1.447 4.29-2.367 1.331-.931 2.862-1.519 4.225-2.368 1.377-.858 2.877-1.431 4.287-2.203 1.422-.779 2.604-1.961 4.057-2.65 1.463-.694 3.207-.658 4.701-1.259 1.5-.604 2.833-1.536 4.363-2.044 1.533-.509 3.009-1.12 4.571-1.53 1.56-.41 3.113-.769 4.7-1.079 1.58-.309 3.096-1.011 4.702-1.218 1.594-.205 3.254.329 4.874.226 1.602-.102 3.11-1.364 4.735-1.364.285-.032-.466.54-.452.724z" fill="#4d8cae"/><path d="m208.424 376.462c-.524 2.373.382 2.573-.143 4.945-.525 2.37-1.544 2.144-2.069 4.514-.525 2.372-.428 2.394-.953 4.766-.525 2.371.036 2.495-.489 4.866-.525 2.372-.356 2.409-.881 4.782s-.275 2.429-.8 4.802-.589 2.359-1.115 4.732c-.525 2.373-.096 2.468-.621 4.841-.525 2.372-1.977 2.051-2.502 4.424s-.11 2.465-.635 4.837c-.526 2.375.225 2.541-.301 4.916-.526 2.376-.76 2.325-1.286 4.701s-.615 2.357-1.142 4.733c-.29 1.3-2.042 2.847-3.942 2.847-2.306 0-2.306-.72-4.612-.72-2.304 0-2.304-.654-4.609-.654s-2.305.727-4.611.727c-2.307 0-2.307.936-4.613.936s-2.307-1.199-4.613-1.199c-2.307 0-2.307-.703-4.613-.703s-2.306 1.324-4.612 1.324-2.306.177-4.612.177c-2.308 0-2.308.417-4.616.417-2.31 0-2.31-.533-4.62-.533s-2.26-.29-4.493-.88c1.336-.867 2.394-1.435 3.661-2.334 1.3-.921 2.6-1.797 3.83-2.746 1.261-.974 2.095-2.418 3.284-3.417 1.22-1.025 3.179-1.167 4.326-2.213 1.178-1.074 2.442-2.059 3.545-3.15 1.133-1.122 1.936-2.556 2.993-3.69 1.088-1.168 1.467-2.926 2.477-4.1 1.042-1.212 2.157-2.301 3.117-3.512.995-1.255 2.057-2.401 2.968-3.647.948-1.296 1.684-2.679 2.544-3.956.9-1.337 2.849-1.956 3.657-3.262.851-1.375 1.519-2.838 2.273-4.167.802-1.414 1.6-2.797 2.297-4.144.754-1.457 1.657-2.798 2.296-4.158.707-1.505 1.155-3.06 1.731-4.422.663-1.569.335-3.401.837-4.745.633-1.693 1.812-2.957 2.217-4.221.917-2.864-1.152-3.517 1.099-4.202 2.432-.74 2.413-.786 4.956-.786 2.544 0 2.544.719 5.088.719s2.544-1.313 5.088-1.313c2.35-.001 3.569 2.268 3.219 3.868z" fill="#1a3b60"/><ellipse cx="155.491" cy="162.125" fill="#195479" rx="6.315" ry="162.125"/><path d="m206.303 162.48c0 1.602 1.134 3.204 1.116 4.795-.019 1.602-.907 3.184-.944 4.774-.037 1.602.094 3.2.038 4.789-.056 1.602-.517 3.177-.591 4.765-.075 1.602-.201 3.187-.293 4.774-.093 1.601.63 3.245.519 4.831-.112 1.6-1.207 3.115-1.337 4.699-.131 1.599-.278 3.18-.427 4.762-.15 1.598.163 3.228-.004 4.807-.169 1.597-.558 3.155-.745 4.731-.189 1.595-.278 3.187-.484 4.761-.208 1.593.55 3.31.324 4.88-.228 1.591-1.736 2.978-1.982 4.544-.249 1.588.56 3.335.295 4.898-.269 1.586-1.446 2.997-1.732 4.555-.29 1.582-.928 3.075-1.235 4.628-.312 1.579-.536 3.149-.864 4.696-.334 1.576-.528 3.156-.878 4.697-.357 1.572-.5 3.17-.873 4.705-.381 1.568-1.052 3.035-1.449 4.563-.406 1.563-.315 3.232-.737 4.752-.432 1.557-.449 3.213-.897 4.724-.459 1.551-.303 3.278-.778 4.779-.488 1.544-2.612 2.528-3.116 4.017-.519 1.536.097 3.438-.437 4.914-.553 1.527-1.071 3.048-1.639 4.508-.589 1.517-2.387 2.506-2.99 3.948-.63 1.506-.639 3.227-1.283 4.648-.675 1.491-.449 3.377-1.138 4.772-.726 1.472-3.066 2.055-3.805 3.417-.786 1.45-1.45 2.859-2.247 4.18-.856 1.419-.292 3.678-1.157 4.942-.943 1.378-1.974 2.674-2.924 3.861-1.054 1.317-2.03 2.703-3.085 3.775-1.198 1.217-2.565 2.29-3.757 3.178-1.384 1.031-3.523.547-4.884 1.112-1.572.653-1.99 1.311-3.511 1.311-.725-2.301-1.74-2.135-1.74-4.548s.56-2.413.56-4.826c0-2.414.465-2.414.465-4.827 0-2.414-1.051-2.414-1.051-4.829 0-2.414.516-2.414.516-4.828s1.153-2.414 1.153-4.827-.513-2.413-.513-4.827c0-2.413.672-2.413.672-4.827s-1.698-2.414-1.698-4.827c0-2.414-.08-2.414-.08-4.829 0-2.414.093-2.414.093-4.828s1.337-2.414 1.337-4.827-1.43-2.413-1.43-4.827 1.298-2.414 1.298-4.827c0-2.414-.982-2.414-.982-4.829 0-2.414.171-2.414.171-4.829 0-2.414.73-2.414.73-4.828s-.005-2.414-.005-4.827c0-2.414-.959-2.414-.959-4.828 0-2.415.026-2.415.026-4.829s.577-2.414.577-4.828.775-2.414.775-4.828-.099-2.414-.099-4.828c0-2.415.203-2.415.203-4.83 0-2.414-1.543-2.414-1.543-4.828s.362-2.414.362-4.828.529-2.414.529-4.828.022-2.414.022-4.828c0-2.413-1.112-2.413-1.112-4.825s1.755-2.412 1.755-4.824-.125-2.412-.125-4.824c0-2.413-.579-2.413-.579-4.826 0-2.415-1.111-2.415-1.111-4.829s1.168-2.414 1.168-4.828c0-2.413-.454-2.413-.454-4.826s.815-2.413.815-4.825c0-2.414.256-2.414.256-4.827 0-2.415-.129-2.415-.129-4.831 0-2.414-.468-2.414-.468-4.827s.474-2.413.474-4.827-.959-2.414-.959-4.829 1.164-2.415 1.164-4.83c0-2.414-1.743-2.414-1.743-4.828s1.663-2.414 1.663-4.829-.507-2.415-.507-4.831c0-2.414-1.251-2.414-1.251-4.829s.213-2.415.213-4.831c0-2.415-.202-2.415-.202-4.83s1.689-2.415 1.689-4.831c0-2.415-1.266-2.415-1.266-4.83 0-2.416.412-2.416.412-4.832 0-2.415-.129-2.415-.129-4.83 0-2.416.128-2.416.128-4.832s-.461-2.416-.461-4.832.926-2.416.926-4.832c0-2.414.389-2.414.389-4.827 0-2.416-1.474-2.416-1.474-4.832 0-2.414-.072-2.414-.072-4.829 0-2.416.749-2.416.749-4.831 0-2.417.075-2.417.075-4.833 0-2.417.062-2.417.062-4.833 0-2.417-.553-2.417-.553-4.833s.241-2.416.241-4.832-.41-2.416-.41-4.833c0-2.418.325-2.418.325-4.837 0-2.42-.509-2.42-.509-4.84s.6-2.334 1.366-4.63c1.616 0 2.799-.777 4.37-.343 1.512.418 3.071 1.298 4.537 2.101 1.357.743 1.986 2.693 3.299 3.752 1.202.969 2.894 1.461 4.056 2.684 1.066 1.122 2.226 2.276 3.256 3.603.953 1.227 1.831 2.604 2.751 4 .859 1.303.931 3.134 1.761 4.579.78 1.359 2.15 2.431 2.903 3.911.712 1.401 1.105 2.994 1.792 4.501.654 1.434 1.085 2.988 1.715 4.514.603 1.46 1.273 2.913 1.853 4.454.558 1.482 1.811 2.742 2.347 4.296.517 1.499.455 3.218.952 4.783.48 1.514 1.72 2.824 2.18 4.398.446 1.525-.443 3.446-.016 5.025.415 1.536 2.175 2.741 2.572 4.326.387 1.546.92 3.087 1.289 4.678.36 1.554-.284 3.353.059 4.949.335 1.561.724 3.124 1.042 4.724.311 1.568 1.521 2.983 1.815 4.586.289 1.573-.264 3.312.008 4.918.267 1.577-.06 3.259.191 4.868.247 1.582.531 3.161.761 4.772.227 1.585.396 3.18.607 4.792.208 1.588.608 3.155.801 4.769.19 1.591 1.8 3.033 1.974 4.648.172 1.594.253 3.217.41 4.833.155 1.597-.295 3.264-.156 4.882.138 1.6 1.123 3.146 1.246 4.765.122 1.602-.668 3.282-.562 4.902.106 1.603-.264 3.241-.173 4.861.09 1.604.743 3.186.818 4.807.074 1.606.441 3.21.501 4.831.059 1.608-.345 3.239-.301 4.861.044 1.608-.731 3.237-.701 4.858.029 1.61.232 3.217.247 4.839.019 1.613-.018 3.224-.018 4.846z" fill="#195479"/><path d="m156.272.439c.766 2.288-1.265 2.674-1.265 5.087s.694 2.413.694 4.826c0 2.414.545 2.414.545 4.827 0 2.414-1.42 2.414-1.42 4.829 0 2.414-.063 2.414-.063 4.828s-.128 2.414-.128 4.827.364 2.413.364 4.827c0 2.413 1.398 2.413 1.398 4.827s-.752 2.414-.752 4.827c0 2.414.449 2.414.449 4.829 0 2.414-1.419 2.414-1.419 4.828s1.018 2.414 1.018 4.827-.507 2.413-.507 4.827.21 2.414.21 4.827c0 2.414-.435 2.414-.435 4.828s-.086 2.414-.086 4.829c0 2.414.638 2.414.638 4.828s-.758 2.414-.758 4.827c0 2.414 1.672 2.414 1.672 4.828 0 2.415-1.858 2.415-1.858 4.829s.85 2.414.85 4.828.827 2.414.827 4.828-1.284 2.414-1.284 4.828c0 2.415.246 2.415.246 4.83 0 2.414.518 2.414.518 4.828s-1.182 2.414-1.182 4.828.235 2.414.235 4.828 1.038 2.414 1.038 4.828c0 2.413-.041 2.413-.041 4.825s-.76 2.412-.76 4.824 1.31 2.412 1.31 4.824c0 2.413-.024 2.413-.024 4.826 0 2.415-.467 2.415-.467 4.829s-.108 2.414-.108 4.828c0 2.413.674 2.413.674 4.826s-.093 2.413-.093 4.825c0 2.414-1.062 2.414-1.062 4.827 0 2.415-.333 2.415-.333 4.831 0 2.414-.127 2.414-.127 4.827s-.084 2.413-.084 4.827.422 2.414.422 4.829 1.366 2.415 1.366 4.83c0 2.414-1.777 2.414-1.777 4.828s.036 2.414.036 4.829.668 2.415.668 4.831c0 2.414-.255 2.414-.255 4.829s.309 2.415.309 4.831c0 2.415-.43 2.415-.43 4.83s.104 2.415.104 4.831c0 2.415.545 2.415.545 4.83 0 2.416.791 2.416.791 4.832 0 2.415-1.235 2.415-1.235 4.83 0 2.416.38 2.416.38 4.832s.255 2.416.255 4.832-.755 2.416-.755 4.832c0 2.414-.394 2.414-.394 4.827 0 2.416.774 2.416.774 4.832 0 2.414.361 2.414.361 4.829 0 2.416-.192 2.416-.192 4.831 0 2.417-.542 2.417-.542 4.833s.258 2.417.258 4.833c0 2.417-.168 2.417-.168 4.833s.37 2.416.37 4.832-.675 2.416-.675 4.832c0 2.418-.001 2.418-.001 4.837 0 2.42-.415 2.42-.415 4.84s.832 2.252.105 4.56c-1.523 0-2.006-.486-3.575-1.142-1.36-.568-3.249-.5-4.628-1.536-1.187-.891-1.504-2.922-2.695-4.144-1.048-1.075-1.878-2.349-2.922-3.669-.942-1.19-2.771-1.788-3.705-3.17-.857-1.267-1.551-2.719-2.398-4.142-.788-1.323-1.617-2.685-2.394-4.137-.729-1.364-1.95-2.544-2.666-4.019-.679-1.397-.544-3.223-1.21-4.715-.634-1.423-1.757-2.674-2.377-4.181-.595-1.444-.569-3.166-1.149-4.685-.559-1.461-1.434-2.831-1.978-4.36-.525-1.477-1.023-2.989-1.534-4.526-.495-1.49-1.737-2.77-2.217-4.315-.466-1.5.146-3.349-.304-4.899-.439-1.51-1.179-2.952-1.603-4.508-.414-1.519-1.421-2.905-1.819-4.467-.389-1.527-.179-3.224-.553-4.791-.366-1.535-1.025-3.02-1.375-4.591-.343-1.541.297-3.306-.03-4.882-.322-1.547-.528-3.12-.833-4.699-.3-1.552-1.756-2.898-2.04-4.479-.28-1.557-.238-3.183-.502-4.768-.259-1.56.169-3.237-.075-4.823-.24-1.564-.618-3.111-.841-4.699-.22-1.568-1.91-2.951-2.114-4.541-.201-1.571.747-3.297.563-4.889-.182-1.574-1.492-3.039-1.657-4.633-.164-1.577.297-3.232.15-4.828-.145-1.58.743-3.255.615-4.852-.127-1.581-1.03-3.109-1.139-4.707-.109-1.583-.41-3.163-.501-4.762-.09-1.585.131-3.195.058-4.794-.072-1.587.194-3.192.14-4.793-.054-1.588-.775-3.162-.811-4.762-.036-1.59-.003-3.189-.022-4.791-.018-1.59.04-3.189.04-4.79 0-1.618 1.03-3.223 1.045-4.83.014-1.619-.429-3.232-.401-4.838.029-1.619-1.181-3.261-1.138-4.866.043-1.619-.012-3.242.046-4.847.058-1.619 1.855-3.161 1.927-4.765.073-1.619-.514-3.259-.427-4.861.088-1.619-.515-3.272-.413-4.874.104-1.618.729-3.195.847-4.795.119-1.618 1.287-3.139 1.422-4.737.136-1.617-.856-3.32-.705-4.916.152-1.616.185-3.236.352-4.829.17-1.615.327-3.223.512-4.814.187-1.613 1.646-3.056 1.848-4.644.206-1.612-.172-3.281.05-4.865.225-1.61.263-3.23.503-4.811.245-1.607-.374-3.341-.114-4.917.266-1.605 1.831-2.971 2.113-4.543.287-1.602-.015-3.295.289-4.861.311-1.6-.156-3.345.172-4.906.335-1.596.819-3.153 1.171-4.707.361-1.592.546-3.218.925-4.765.389-1.587.947-3.123 1.354-4.66.419-1.58 1.794-2.877 2.232-4.404.452-1.574 1.524-2.921 1.996-4.436.487-1.566.903-3.103 1.411-4.603.527-1.555.813-3.143 1.361-4.626.571-1.543-.085-3.53.509-4.992.621-1.529 2.378-2.538 3.023-3.975.678-1.509.378-3.441 1.082-4.845.743-1.482 2.295-2.492 3.065-3.853.82-1.449.881-3.313 1.731-4.62.912-1.4 2.671-2.144 3.617-3.375 1.022-1.331 1.863-2.701 2.922-3.826 1.154-1.226 2.13-2.549 3.326-3.52 1.307-1.061 2.313-2.627 3.666-3.371 1.46-.803 3.504-.2 5.014-.617 1.56-.435 3.818-1.329 5.433-1.329z" fill="#326d92"/></svg>