<svg height="417.442" viewBox="0 0 412.345 417.442" width="412.345" xmlns="http://www.w3.org/2000/svg"><g fill="#ffd04d"><ellipse cx="208.729" cy="216.296" rx="111.314" ry="107.79"/><path d="m208.729 326.586c-62.757 0-113.814-49.476-113.814-110.29s51.057-110.29 113.814-110.29 113.814 49.476 113.814 110.29-51.057 110.29-113.814 110.29zm0-215.579c-60 0-108.814 47.233-108.814 105.29s48.814 105.29 108.814 105.29 108.814-47.233 108.814-105.29-48.814-105.29-108.814-105.29z"/><path d="m191.922 72.323c3.886 5.803 23.607 5.592 28.44 0s17.587-62.154 12.71-67.459c-4.878-5.304-54.111-.956-57.682 5.866s12.646 55.79 16.532 61.593z"/><path d="m205.609 79.095c-.822 0-1.631-.024-2.42-.073-3.813-.234-10.616-1.235-13.344-5.309-3.53-5.271-21.132-55.618-16.67-64.143 1.841-3.517 9.989-6.249 24.218-8.118.321-.042 32.127-4.144 37.519 1.719 2.847 3.097 2.139 15.147-2.104 35.816-2.12 10.324-7.053 30.919-10.554 34.969-3.133 3.625-10.237 5.138-16.645 5.138zm12.54-74.086c-5.867 0-13.251.443-21.279 1.56-14.265 1.985-18.749 4.525-19.273 5.336-2.597 5.168 12.151 52.678 16.403 59.026.875 1.307 4.151 2.772 9.497 3.101 6.434.392 13.013-1.074 14.975-3.344 1.678-1.942 5.807-15.233 9.278-31.924 4.266-20.517 4.408-30.453 3.455-32.227-1.13-.885-5.992-1.528-13.055-1.528z"/><path d="m226.978 354.994c-4.181-6.387-24.16-8.808-28.837-2.896s-13.02 54.396-6.777 60.237 45.676.853 49.649-5.049-9.854-45.906-14.036-52.292z"/><path d="m204.938 417.453c-6.204 0-12.53-.718-15.281-3.292-4.36-4.08-3.208-19.796-1.475-32.262 1.726-12.412 4.965-27.518 7.999-31.352 3.401-4.299 11.197-4.429 14.391-4.287 7.013.314 15.453 2.713 18.498 7.364 2.325 3.551 6.883 15.4 10.378 26.975 6.98 23.122 4.467 26.856 3.641 28.083-3.442 5.114-20.505 7.419-25.653 8.003-2.939.334-7.682.767-12.498.767zm4.02-66.229c-4.26 0-7.658.913-8.855 2.426-1.725 2.18-4.936 14.329-6.968 28.938-2.526 18.165-1.421 26.65-.062 27.922 1.807 1.691 10.762 2.688 23.798 1.208 12.821-1.456 21.055-4.32 22.069-5.828.672-1.13.636-7.621-4.342-24.053-3.588-11.846-7.918-22.735-9.711-25.474-1.686-2.575-8.072-4.818-14.538-5.108-.472-.021-.937-.032-1.391-.032z"/><path d="m353.224 195.56c-6.612 4.312-11.74 24.261-6.612 29.58 5.129 5.319 52.995 15.732 59.049 11.125 6.054-4.606 5.427-45.301-1.157-49.543s-44.669 4.526-51.28 8.838z"/><path d="m398.864 239.884c-7.214 0-17.005-1.687-23.568-3.009-2.647-.533-25.995-5.345-30.484-10-2.969-3.08-3.042-8.589-2.579-12.668.858-7.571 4.523-17.413 9.625-20.741 3.978-2.595 16.359-5.981 26.533-7.986 10.063-1.982 22.996-3.741 27.467-.86 4.858 3.13 6.091 16.584 6.393 24.325.161 4.126.674 24.933-5.077 29.309-1.552 1.181-4.589 1.63-8.311 1.63zm-44.274-42.231c-3.189 2.081-6.573 9.918-7.388 17.116-.552 4.869.264 7.653 1.21 8.635 1.691 1.754 12.777 5.519 27.738 8.542 17.741 3.584 26.589 3.33 27.999 2.327 1.621-1.234 3.663-10.895 3.106-25.133-.489-12.504-2.695-19.409-4.105-20.317-4.905-3.16-41.599 4.292-48.561 8.83z"/><path d="m68.58 226.134c2.227-6.464.371-17.214-5.47-21.138s-50.293-12.857-55.955-7.791-6.668 40.876-.168 45.461c6.501 4.585 59.365-10.068 61.593-16.532z"/><path d="m11.929 245.993c-2.848 0-5.097-.377-6.382-1.284-3.025-2.134-4.839-8.062-5.392-17.62-.616-10.649.631-27.54 5.334-31.747 7.203-6.444 53.107 3.609 59.016 7.579 6.84 4.596 9.042 16.476 6.44 24.027-.41 1.19-1.658 4.813-21.378 11.181-8.03 2.593-26.997 7.864-37.636 7.864zm3.14-47.81c-3.652 0-5.665.39-6.248.886-2.273 2.034-4.42 14.858-3.675 27.731.549 9.49 2.387 13.191 3.282 13.823.88.555 6.717 1.177 22.877-2.609 19.238-4.507 33.474-10.546 34.936-12.769 1.877-5.575.171-15.019-4.526-18.174-2.254-1.514-13.625-4.632-26.961-6.859-8.989-1.502-15.443-2.029-19.686-2.029z"/><path d="m328.291 295.911c-8.248 0-19.482 17.431-19.482 23.969s39.032 41.789 46.823 41.789 23.51-35.144 22.531-42.124-41.624-23.633-49.872-23.633z"/><path d="m355.632 364.169c-6.081 0-21.609-13.345-28.003-19.082-6.41-5.752-21.32-19.724-21.32-25.207 0-7.477 11.972-26.469 21.982-26.469 4.94 0 18.166 4.736 28.678 9.415 22.796 10.146 23.453 14.832 23.669 16.371.951 6.779-9.821 31.35-17.732 40.448-2.647 3.044-5.027 4.524-7.275 4.524zm-27.341-65.758c-6.455 0-16.982 15.684-16.982 21.469.284 1.799 6.881 10.079 20.129 21.905 13.432 11.99 22.234 17.384 24.195 17.384.011 0 1.091-.032 3.502-2.805 7.816-8.988 17.197-31.882 16.553-36.473-.434-1.456-6.596-6.245-21.25-12.718-12.416-5.485-23.044-8.762-26.146-8.762z"/><path d="m93.026 123.855c6.971 0 17.618-9.376 15.659-18.801s-29.992-47.788-38.005-47.788-40.127 30.354-40.127 38.801 55.502 27.788 62.473 27.788z"/><path d="m93.026 126.355c-4.475 0-21.595-5.639-34.778-10.905-30.195-12.062-30.195-17.38-30.195-19.383 0-6.594 12.469-19.243 17.83-24.375 4.148-3.971 18.195-16.927 24.797-16.927 10.347 0 38.514 40.457 40.452 49.78.957 4.605-.479 9.556-4.044 13.938-3.83 4.708-9.482 7.872-14.063 7.872zm-22.346-66.589c-2.121 0-10.143 4.821-21.339 15.539-10.579 10.127-16.287 18.256-16.287 20.763.365 1.491 6.674 6.675 27.894 15.076 15.747 6.234 29.517 10.212 32.078 10.212 3.06 0 7.343-2.535 10.184-6.027 1.504-1.849 3.898-5.577 3.027-9.765-2.046-9.844-29.96-45.797-35.557-45.797z"/><path d="m302.192 102.024c0 6.483 14.622 19.19 20.99 19.19s40.241-31.186 40.241-37.902-22.678-37.902-31.874-37.902-29.357 50.131-29.357 56.614z"/><path d="m323.182 123.714c-7.478 0-23.49-13.617-23.49-21.69 0-4.236 5.927-19.857 11.462-31.79 12.676-27.324 18.486-27.324 20.395-27.324 11.371 0 34.374 33.039 34.374 40.401 0 5.244-11.608 16.848-18.528 23.298-4.304 4.013-18.771 17.104-24.213 17.104zm8.367-75.803c-1.259 0-6.563 4.389-15.859 24.428-6.612 14.252-10.998 27.306-10.998 29.686 0 4.835 13.133 16.69 18.49 16.69 1.707-.14 9.519-5.243 20.794-15.751 11.434-10.658 16.794-17.92 16.948-19.674 0-1.932-4.256-10.151-11.951-19.896-8.399-10.637-14.92-15.481-17.423-15.481z"/><path d="m106.68 334.969c0-6.179-15.59-22.405-23.205-22.405s-48.541 29.641-48.541 36.441 32.013 32.83 40.368 30.01 31.378-37.866 31.378-44.046z"/><path d="m73.91 381.712c-5.474 0-13.644-4.975-19.917-9.479-7.457-5.353-21.559-17.098-21.559-23.229 0-5.136 12.198-15.223 22.43-22.781 3.653-2.699 22.203-16.16 28.611-16.16 9.105 0 25.705 17.463 25.705 24.905 0 5.642-11.666 22.766-12.996 24.699-4.023 5.849-14.033 19.674-20.082 21.715-.665.225-1.4.329-2.192.329zm9.565-66.648c-2.059 0-11.204 4.584-25.088 14.774-13.911 10.211-20.63 17.401-20.958 19.246.178 2.479 9.852 12.727 22.353 21.08 8.988 6.006 13.482 6.9 14.721 6.482 7.681-2.592 29.671-37.11 29.677-41.677 0-4.864-14.567-19.905-20.705-19.905z"/></g><path d="m195.033 128.854c36.157-8.215 71.838-.74 98.525 17.656-20.418-23.25-50.842-38.004-84.829-38.004-61.477 0-111.314 48.259-111.314 107.79 0 7.628.824 15.07 2.38 22.25.104-50.289 38.93-96.897 95.238-109.691z" fill="#ffde8a"/><path d="m99.793 241.046c-1.163 0-2.19-.811-2.441-1.97-1.617-7.46-2.437-15.124-2.437-22.779 0-60.814 51.057-110.29 113.814-110.29 33.419 0 65.023 14.162 86.708 38.854.833.948.828 2.368-.01 3.311-.839.943-2.248 1.113-3.287.397-27.189-18.742-62.385-25.04-96.552-17.276-53.954 12.259-93.189 57.368-93.292 107.259-.003 1.276-.967 2.346-2.236 2.48-.089.01-.178.014-.266.014zm108.936-130.039c-59.872 0-108.606 47.031-108.814 104.918 3.965-17.215 12.341-33.709 24.525-47.913 17.643-20.569 42.517-35.342 70.039-41.595 28.362-6.444 57.424-3.556 82.411 7.809-19.173-14.923-43.134-23.219-68.161-23.219z" fill="#ffde8a"/><path d="m233.072 4.864c-4.878-5.304-54.111-.956-57.682 5.866-.535 1.022-.623 2.996-.378 5.623 19.685-4.544 39.392-5.902 59.122-4.093.128-3.754-.173-6.429-1.062-7.396z" fill="#ffde8a"/><path d="m175.013 18.853c-.521 0-1.034-.163-1.464-.473-.585-.422-.959-1.076-1.026-1.794-.316-3.386-.115-5.549.652-7.015 1.841-3.517 9.988-6.249 24.214-8.118.32-.042 32.13-4.146 37.523 1.719 1.374 1.495 1.889 4.238 1.721 9.173-.023.688-.329 1.335-.845 1.79s-1.197.677-1.882.615c-19.395-1.779-39.02-.419-58.332 4.04-.186.043-.375.064-.562.064zm43.135-13.845c-5.868 0-13.254.443-21.283 1.561-14.262 1.985-18.745 4.524-19.269 5.336-.005.011-.157.334-.202 1.356 17.976-3.858 36.197-5.108 54.247-3.72-.078-2.068-.355-2.818-.443-3.009-1.14-.883-5.998-1.523-13.05-1.523z" fill="#ffde8a"/><path d="m7.155 197.205c-5.662 5.066-6.668 40.876-.168 45.461 1.379.973 4.85 1.077 9.477.58-1.254-16.86-.51-32.613 1.843-47.477-5.468-.262-9.659.1-11.152 1.435z" fill="#ffde8a"/><path d="m11.714 246.039c-3.69 0-5.236-.673-6.167-1.33-3.025-2.134-4.839-8.061-5.392-17.618-.616-10.65.631-27.542 5.334-31.75 1.328-1.189 3.999-2.5 12.938-2.069.71.034 1.371.368 1.82.919.448.551.641 1.267.53 1.968-2.396 15.137-3.007 30.917-1.819 46.9.1 1.345-.885 2.527-2.226 2.671-2.013.216-3.66.307-5.017.307zm-2.893-46.971c-2.274 2.038-4.42 14.861-3.675 27.734.549 9.488 2.387 13.189 3.282 13.821.041.026 1.041.616 5.373.345-.918-14.542-.376-28.907 1.612-42.778-5.459-.012-6.538.833-6.592.878z" fill="#ffde8a"/><path d="m30.553 96.067c0 2.338 4.254 5.51 10.55 8.875 7.667-17.192 20.14-31.365 37.929-42.199-3.486-3.351-6.473-5.478-8.352-5.478-8.013 0-40.127 30.354-40.127 38.801z" fill="#ffde8a"/><path d="m41.103 107.442c-.407 0-.812-.1-1.179-.295-8.321-4.448-11.872-7.761-11.872-11.08 0-6.594 12.469-19.242 17.83-24.374 4.148-3.971 18.195-16.927 24.797-16.927 1.571 0 4.326.64 10.084 6.175.559.537.837 1.304.753 2.075s-.522 1.459-1.185 1.863c-16.967 10.333-29.397 24.155-36.946 41.082-.283.634-.816 1.122-1.473 1.347-.264.09-.538.135-.811.135zm-8.05-11.428c.076.231.812 1.914 6.911 5.438 7.601-15.808 19.337-28.929 34.944-39.068-3.073-2.58-4.174-2.618-4.229-2.618-2.121 0-10.143 4.821-21.339 15.539-10.507 10.058-16.209 18.145-16.286 20.71z" fill="#ffde8a"/><path d="m331.549 45.41c-2.326 0-5.355 3.212-8.581 8.11 14.423 11.275 26.337 23.96 35.235 38.339 3.173-3.773 5.22-6.899 5.22-8.547 0-6.716-22.678-37.902-31.874-37.902z" fill="#ffde8a"/><path d="m358.204 94.359c-.06 0-.121-.002-.181-.006-.8-.058-1.523-.497-1.945-1.178-8.43-13.622-20.088-26.301-34.649-37.685-1.026-.802-1.264-2.257-.548-3.345 4.207-6.387 7.497-9.235 10.669-9.235 11.371 0 34.374 33.04 34.374 40.402 0 1.514-.66 4.037-5.807 10.156-.477.567-1.178.891-1.913.891zm-31.853-41.349c13.13 10.535 23.9 22.139 32.078 34.558 2.367-3.167 2.49-4.227 2.495-4.28 0-1.932-4.256-10.151-11.951-19.896-8.399-10.637-14.92-15.482-17.424-15.482-.017 0-1.577.065-5.199 5.1z" fill="#ffde8a"/></svg>